<svg xmlns="http://www.w3.org/2000/svg" viewBox="0 0 94.15 81.06"><title>ikony-bramburky</title><g style="isolation:isolate"><g id="Layer_1" data-name="Layer 1"><path d="M6.14,24.51c.09-6.57,3.39-13.45,9.76-16,6.77-2.7,14.05.81,19.16,5.25,3.69,3.21,6.75,7.06,10.29,10.42a75.28,75.28,0,0,0,13.27,9.7c9,5.42,18.33,10.47,27.51,15.63a.5.5,0,0,1,.14.77A5.79,5.79,0,0,1,89,54.73c2.69,5.94-.49,12.3-5.71,16C70,80.18,52.62,73.55,43.54,61.6a.26.26,0,0,1-.33-.11c-.19-.37-.37-.74-.55-1.11-.08-.11-.17-.23-.24-.34a.48.48,0,0,1-.09-.31c-.39-.78-.75-1.57-1.11-2.36a22.41,22.41,0,0,1-7.27.32C18.46,55.79,6,39.91,6.14,24.51ZM13,12.26A16.33,16.33,0,0,0,7.87,23a28.54,28.54,0,0,0,2.19,12.82,37.1,37.1,0,0,0,8.23,12.33c5.94,5.83,14.39,9,22.58,7.7a.43.43,0,0,1,.59-.1,23,23,0,0,0,3.3-.88C49,53.43,52.81,51.05,57,49.44a54,54,0,0,1,12.31-3.25,25.84,25.84,0,0,1,9,.35C70,42.15,61.66,37.82,53.83,32.67A72.23,72.23,0,0,1,41.47,22.49c-3.85-4-7.54-8.4-12.53-11-4.18-2.21-9.25-3.16-13.6-.84A12.32,12.32,0,0,0,13,12.26ZM42.09,57.17c.29.7.58,1.39.85,2.09a.57.57,0,0,1,.43.22c6.85,8.91,17.32,15.37,28.89,13.76,5-.7,10.07-2.93,13.36-6.87a10.4,10.4,0,0,0-1.14-15c-7.32-6.53-18.92-3.53-27.05-.35C52.08,53.14,47.34,55.91,42.09,57.17Z" transform="translate(-3.88 -7.56)" style="fill:#442a18"/><path d="M7.87,23A16.33,16.33,0,0,1,13,12.26l1.21.9c-5,6.53-5.26,14.91-2.39,22.19l-1.72.51A28.54,28.54,0,0,1,7.87,23Z" transform="translate(-3.88 -7.56)" style="fill:#fef2db"/><path d="M14.17,13.16,13,12.26a12.32,12.32,0,0,1,2.38-1.65c4.35-2.32,9.42-1.37,13.6.84,5,2.64,8.68,7,12.53,11A72.23,72.23,0,0,0,53.83,32.67C61.66,37.82,70,42.15,78.31,46.54a25.84,25.84,0,0,0-9-.35A54,54,0,0,0,57,49.44c-4.16,1.61-8,4-12.21,5.47a23,23,0,0,1-3.3.88.43.43,0,0,0-.59.1c-8.19,1.34-16.64-1.87-22.58-7.7a37.1,37.1,0,0,1-8.23-12.33l1.72-.51a27.51,27.51,0,0,0,5.86,9.08,27.07,27.07,0,0,0,32,4.94c.34-.18,0-.67-.31-.51-10.17,4.73-22.45,3.13-30.49-5C11,36,8.45,23.08,15.34,13.77c.44-.59-.59-1.37-1.05-.78Z" transform="translate(-3.88 -7.56)" style="fill:#fef2db"/><path d="M11.78,35.35c-2.87-7.28-2.57-15.66,2.39-22.19l.12-.17c.46-.59,1.49.19,1.05.78C8.45,23.08,11,36,18.84,43.91c8,8.08,20.32,9.68,30.49,5,.34-.16.65.33.31.51a27.07,27.07,0,0,1-32-4.94A27.51,27.51,0,0,1,11.78,35.35Z" transform="translate(-3.88 -7.56)" style="fill:#442a18"/><path d="M42.94,59.26c-.27-.7-.56-1.39-.85-2.09,5.25-1.26,10-4,15.34-6.12,8.13-3.18,19.73-6.18,27.05.35a10.4,10.4,0,0,1,1.14,15c-3.29,3.94-8.35,6.17-13.36,6.87-11.57,1.61-22-4.85-28.89-13.76A.57.57,0,0,0,42.94,59.26ZM84,59a.35.35,0,0,0-.68.19A5.39,5.39,0,0,1,81.7,64c-.36.37.14,1.09.59.74A5.32,5.32,0,0,0,84,59Zm1.89-1.85c-.16-.33-.72-.09-.59.26a8,8,0,0,1,.5,2.79A15.57,15.57,0,0,1,85.32,63a.39.39,0,0,0,.71.28C87.17,61.58,86.78,58.93,85.92,57.18Z" transform="translate(-3.88 -7.56)" style="fill:#fbd88b"/><path d="M83.35,59.22A.35.35,0,0,1,84,59a5.32,5.32,0,0,1-1.74,5.72c-.45.35-1-.37-.59-.74A5.39,5.39,0,0,0,83.35,59.22Z" transform="translate(-3.88 -7.56)" style="fill:#442a18"/><path d="M85.33,57.44c-.13-.35.43-.59.59-.26.86,1.75,1.25,4.4.11,6.12a.39.39,0,0,1-.71-.28,15.57,15.57,0,0,0,.51-2.79A8,8,0,0,0,85.33,57.44Z" transform="translate(-3.88 -7.56)" style="fill:#442a18"/><path d="M95.48,64.48c3.13,5.77,3.61,13.38-.7,18.72C90.19,88.87,82.12,89.36,75.49,88c-4.79-1-9.33-2.87-14.07-4.07a74.64,74.64,0,0,0-16.31-2c-10.53-.33-21.11-.19-31.64-.21a.49.49,0,0,1-.5-.59A5.85,5.85,0,0,1,8.4,78.57c-5.25-3.87-5.57-11-2.82-16.75,7-14.77,25.4-17.45,39.16-11.45a.24.24,0,0,1,.33-.07l1,.7.37.18a.43.43,0,0,1,.23.23c.72.49,1.43,1,2.13,1.52A21.75,21.75,0,0,1,55,49.1C69.45,43.19,88.13,50.94,95.48,64.48Zm0,14a16.28,16.28,0,0,0-.82-11.89,28.77,28.77,0,0,0-8.17-10.12,37.29,37.29,0,0,0-13.2-6.74c-8-2.19-17-.86-23.47,4.31a.44.44,0,0,1-.47.38,22.71,22.71,0,0,0-2.44,2.37c-2.95,3.35-5.15,7.3-8,10.74a53.12,53.12,0,0,1-9.14,8.84,26.05,26.05,0,0,1-8.06,4.11c9.39-.23,18.79-.52,28.14.15a72.06,72.06,0,0,1,15.75,2.85C71,85.1,76.32,87.14,82,87c4.73-.12,9.62-1.77,12.28-5.91A12.35,12.35,0,0,0,95.51,78.49Zm-47.35-25c-.59-.46-1.18-.92-1.76-1.4a.54.54,0,0,1-.48,0c-10.33-4.42-22.62-5-31.94,2.11-4,3-7.35,7.46-8.3,12.51A10.41,10.41,0,0,0,14,79.26c9.57,2.12,18.23-6.16,23.77-12.9C41.41,61.92,44.19,57.19,48.16,53.52Z" transform="translate(-3.88 -7.56)" style="fill:#442a18"/><path d="M94.69,66.6a16.28,16.28,0,0,1,.82,11.89L94,78.3c1.13-8.13-2.7-15.58-8.75-20.53l1.25-1.29A28.77,28.77,0,0,1,94.69,66.6Z" transform="translate(-3.88 -7.56)" style="fill:#fef2db"/><path d="M94,78.3l1.49.19a12.35,12.35,0,0,1-1.27,2.61C91.58,85.24,86.69,86.89,82,87c-5.64.13-11-1.91-16.33-3.52a72.06,72.06,0,0,0-15.75-2.85c-9.35-.67-18.75-.38-28.14-.15a26.05,26.05,0,0,0,8.06-4.11,53.12,53.12,0,0,0,9.14-8.84c2.85-3.44,5.05-7.39,8-10.74a22.71,22.71,0,0,1,2.44-2.37.44.44,0,0,0,.47-.38c6.49-5.17,15.43-6.5,23.47-4.31a37.29,37.29,0,0,1,13.2,6.74l-1.25,1.29a27.74,27.74,0,0,0-9.55-5.07A27.08,27.08,0,0,0,45.38,64c-.21.32.3.6.52.3,6.57-9.1,18.07-13.7,29-10.58C85.64,56.8,94.17,66.85,92.7,78.34c-.1.72,1.18.9,1.29.17Z" transform="translate(-3.88 -7.56)" style="fill:#fef2db"/><path d="M85.27,57.77c6,4.95,9.88,12.4,8.75,20.53l0,.21c-.11.73-1.39.55-1.29-.17,1.47-11.49-7.06-21.54-17.78-24.6-11-3.12-22.45,1.48-29,10.58-.22.3-.73,0-.52-.3A27.08,27.08,0,0,1,75.72,52.7,27.74,27.74,0,0,1,85.27,57.77Z" transform="translate(-3.88 -7.56)" style="fill:#442a18"/><path d="M46.4,52.12c.58.48,1.17.94,1.76,1.4-4,3.67-6.75,8.4-10.4,12.84-5.54,6.74-14.2,15-23.77,12.9A10.41,10.41,0,0,1,5.68,66.75c1-5,4.28-9.46,8.3-12.51,9.32-7.06,21.61-6.53,31.94-2.11A.54.54,0,0,0,46.4,52.12ZM10.66,72.38c.33.33.77-.15.49-.49a5.42,5.42,0,0,1-.9-5c.13-.5-.65-.89-.88-.36A5.3,5.3,0,0,0,10.66,72.38ZM9.9,74.92c.31.21.68-.27.4-.52a8.07,8.07,0,0,1-1.81-2.18,15.49,15.49,0,0,1-.91-2.69.39.39,0,0,0-.76.1C6.67,71.69,8.3,73.81,9.9,74.92Z" transform="translate(-3.88 -7.56)" style="fill:#fbd88b"/><path d="M11.15,71.89c.28.34-.16.82-.49.49a5.3,5.3,0,0,1-1.29-5.84c.23-.53,1-.14.88.36A5.42,5.42,0,0,0,11.15,71.89Z" transform="translate(-3.88 -7.56)" style="fill:#442a18"/><path d="M10.3,74.4c.28.25-.09.73-.4.52-1.6-1.11-3.23-3.23-3.08-5.29a.39.39,0,0,1,.76-.1,15.49,15.49,0,0,0,.91,2.69A8.07,8.07,0,0,0,10.3,74.4Z" transform="translate(-3.88 -7.56)" style="fill:#442a18"/><path d="M95.54,75.34C90.36,90,73,83.79,62,81.37A150.38,150.38,0,0,0,42.6,78.43Q37.2,78,31.8,78a60.34,60.34,0,0,0-7,.23c3.14-1.26,5.66-3.73,7.87-7.13h0A142.79,142.79,0,0,0,46.91,54.49l.63.15a.86.86,0,0,0,1-1.11.89.89,0,0,0,.26-.12,6.26,6.26,0,0,0,2.72-.6c6.12-2.64,12-5.89,18.76-6.15A1.08,1.08,0,0,0,70.87,48c5.17,2.22,10.44,4.1,15.54,6.52,1.18.56,2.69-.64,1.9-1.91-3.55-5.76-9.11-8.15-15.09-8.5l-.82-.2a27.94,27.94,0,0,0-11.33-.41,31.54,31.54,0,0,0-7.27,2c-2.44,1-4.14,1.66-6.87,1.08-8.64-1.82-19.57-2.49-27.83,1.27a.69.69,0,0,0,0,1.19l-.48.32c-.66.47-.3,1.67.59,1.4,6-1.85,11.63-3.22,17.92-1.84a26,26,0,0,1,6.09,2.22c-7.46-2.74-15.64-3.77-23-.08a1.14,1.14,0,0,0-.5.47,11.61,11.61,0,0,0-3.26,1.73c-1.05.79-2.13,1.62-3.19,2.51A19.64,19.64,0,0,0,11.42,57C7,60.39,3.6,68,7,72.6c1.84,3.65,6,5.8,10.12,6.37a16.35,16.35,0,0,0,4.57,0A.72.72,0,0,0,22,80.2c3.56.69,7.38.31,11,.43,4,.13,8,.38,12,.78a186,186,0,0,1,24.78,4.72c6.18,1.5,12.82,2.6,18.91.16,4.52-1.82,8.75-5.55,9.34-10.62C98.19,74.18,96,74.08,95.54,75.34ZM48.59,49.6a6.75,6.75,0,0,0,1.1,0c-.39.24-.77.48-1.13.72a8.68,8.68,0,0,1-3.22-1.24C46.41,49.3,47.49,49.47,48.59,49.6Zm-5.86,3.9.06-.08,1.25.33L42.48,55.3a1.67,1.67,0,0,0-.24-.35.91.91,0,0,0,0-.85C42.4,53.9,42.57,53.71,42.73,53.5ZM9.63,71.34a8.3,8.3,0,0,1-.44-1.07,1.54,1.54,0,0,0,.82.2C9.88,70.76,9.75,71.05,9.63,71.34Zm6,4.47v0a11.18,11.18,0,0,1-1.48-.5q1-.7,2-1.44A16.7,16.7,0,0,0,15.63,75.81ZM28.24,54.65l.06,0c-.69.37-1.37.77-2,1.21-.47.07-.95.13-1.42.17l-.72.07A23.16,23.16,0,0,1,28.24,54.65ZM25.55,74.48c.57-.28,1.15-.56,1.71-.87a9.29,9.29,0,0,1-2.67,1.87,9.63,9.63,0,0,1-1.17.43Z" transform="translate(-3.88 -7.56)" style="fill:#fbd888;opacity:0.55;mix-blend-mode:multiply"/></g></g></svg>