<svg xmlns="http://www.w3.org/2000/svg" viewBox="0 0 87.79 91.71"><title>ikony-tycinky</title><g style="isolation:isolate"><g id="Layer_2" data-name="Layer 2"><path d="M14.17,8q18,18.12,36,36.24c12,12.06,24.4,23.84,35.73,36.49a.47.47,0,0,1-.46.77A6,6,0,0,1,82.53,86c-1.38.86-3.43,1.37-4.85.42a.52.52,0,0,1-.52-.08C64.12,75.9,53,62.85,41.8,50.54S19.18,25.73,6.37,14.85a.76.76,0,0,1,.47-1.32A8.86,8.86,0,0,1,13,8,.81.81,0,0,1,14.17,8Zm69.9,73.24a.64.64,0,0,1,.36-.58C72.15,69.39,60.69,57.16,49,45.38q-17.91-18-35.78-36a8.37,8.37,0,0,0-5.25,4.67c12.63,10.79,23.9,23,35,35.38C54.13,62,65.66,74,77.82,85.62a7.41,7.41,0,0,0,3.87-.7A4.64,4.64,0,0,0,84.07,81.19Z" transform="translate(-6.11 -3.69)" style="fill:#442a18"/><path d="M84.43,80.61a.64.64,0,0,0-.36.58,4.64,4.64,0,0,1-2.38,3.73,7.41,7.41,0,0,1-3.87.7C65.66,74,54.13,62,42.9,49.45c-11.07-12.36-22.34-24.59-35-35.38A8.37,8.37,0,0,1,13.18,9.4q17.9,18,35.78,36C60.69,57.16,72.15,69.39,84.43,80.61Z" transform="translate(-6.11 -3.69)" style="fill:#8c4a37"/><path d="M39.46,4.08Q53.13,25.65,66.79,47.22c9.08,14.35,18.7,28.54,27,43.33a.47.47,0,0,1-.62.66A6,6,0,0,1,89.4,95c-1.53.53-3.65.59-4.83-.65a.49.49,0,0,1-.49-.19c-10.48-13-18.5-28.14-26.81-42.58S40.52,22.52,30.35,9.14A.77.77,0,0,1,31.09,8a8.86,8.86,0,0,1,7.18-4.1A.82.82,0,0,1,39.46,4.08ZM91.94,90.66a.68.68,0,0,1,.47-.5c-9.57-13.59-18.13-28-27-42Q51.75,26.73,38.17,5.28A8.38,8.38,0,0,0,32,8.71C42.05,22,50.43,36.34,58.57,50.79c8.27,14.67,16.95,28.87,26.32,42.85a7.38,7.38,0,0,0,3.93.14A4.61,4.61,0,0,0,91.94,90.66Z" transform="translate(-6.11 -3.69)" style="fill:#442a18"/><path d="M92.41,90.16a.68.68,0,0,0-.47.5,4.61,4.61,0,0,1-3.12,3.12,7.38,7.38,0,0,1-3.93-.14c-9.37-14-18-28.18-26.32-42.85C50.43,36.34,42.05,22,32,8.71a8.38,8.38,0,0,1,6.13-3.43q13.61,21.44,27.2,42.85C74.28,62.15,82.84,76.57,92.41,90.16Z" transform="translate(-6.11 -3.69)" style="fill:#8c4a37"/><path d="M76.15,82.73c-4.87-9.93-11.63-19-17.56-28.31a.76.76,0,0,0-1.34.12c-12-17.4-28.6-31.21-44-45.4a1.42,1.42,0,0,0-2,2C27.76,30.48,44.86,49.33,62.81,67.43a1.44,1.44,0,0,0,1.43.36,151.32,151.32,0,0,0,9.88,16.09A1.17,1.17,0,0,0,76.15,82.73ZM38,36.28a1.82,1.82,0,0,0-.48.34q-3.21-3.48-6.39-7C33.41,31.81,35.71,34,38,36.28Z" transform="translate(-6.11 -3.69)" style="fill:#fbd888;opacity:0.55;mix-blend-mode:multiply"/><path d="M93.12,89.92c-4-7.29-8.92-14.13-13.45-21.09s-9.1-14-13.55-21.06C57.24,33.66,49.1,19,40,5.05a1.33,1.33,0,0,0-2.31,1.3C45.59,21.22,55.06,35.46,64,49.71c4.44,7.06,8.88,14.13,13.41,21.13s8.77,14,13.91,20.41C92.15,92.25,93.71,91,93.12,89.92Z" transform="translate(-6.11 -3.69)" style="fill:#fbd888;opacity:0.55;mix-blend-mode:multiply"/></g></g></svg>