<svg xmlns="http://www.w3.org/2000/svg" viewBox="0 0 90.43 75.01"><title>ico-suche</title><g style="isolation:isolate"><g id="Layer_4" data-name="Layer 4"><path d="M26.84,10.33a16,16,0,0,1,17.92,5.05c4.48,5.71,4.92,13.24,7,19.87a37.07,37.07,0,0,0,16.1,20.5c3.77,2.32,8,3.41,11.94,5.28C82.43,62.29,85,64.15,86,66.92c1.91,5.29-3.23,10.8-7.6,13.39-14.21,8.46-27.9-3.8-37-13.42A98.56,98.56,0,0,1,18,27.14a.51.51,0,0,1-.35-.41,14.27,14.27,0,0,1-.2-1.6c-.12-.42-.24-.84-.34-1.27a.38.38,0,0,1,.31-.49A14.47,14.47,0,0,1,26.84,10.33ZM46,20.79C43.32,14.43,37.37,10,29.89,11.15A13.21,13.21,0,0,0,18.81,26,109.79,109.79,0,0,0,41.72,65.18c8.77,9.48,22.76,22.69,36.65,13.52,2.82-1.86,5.61-4.77,6.34-8,1-4.41-2.74-7.22-6.55-8.81-5.79-2.42-11.15-4.32-16-8.38a38.07,38.07,0,0,1-11-14.91C48.88,32.8,48.42,26.52,46,20.79Z" transform="translate(-5.19 -9.38)" style="fill:#442a18"/><path d="M29.89,11.15C37.37,10,43.32,14.43,46,20.79c2.42,5.73,2.88,12,5.19,17.78a38.07,38.07,0,0,0,11,14.91c4.84,4.06,10.2,6,16,8.38,3.81,1.59,7.52,4.4,6.55,8.81-.73,3.26-3.52,6.17-6.34,8-13.89,9.17-27.88-4-36.65-13.52A109.79,109.79,0,0,1,18.81,26,13.21,13.21,0,0,1,29.89,11.15ZM36,16.49a.47.47,0,0,0-.79-.51,2.52,2.52,0,0,1-3.67.47c-.24-.21-.61.08-.4.33C32.35,18.09,35.14,18.17,36,16.49ZM34.4,23.12c.06-.52-.67-.59-.88-.17a2.74,2.74,0,0,1-1.87,1.77.34.34,0,1,0,.13.66A3,3,0,0,0,34.4,23.12ZM50.67,42.36a2.86,2.86,0,0,0-3.88-.72c-.33.21,0,.75.38.55a2.18,2.18,0,0,1,2.82.58C50.29,43.09,50.88,42.75,50.67,42.36ZM30.37,22.48c-.65-2.13-4.32-2.16-5.05-.06-.14.42.48.61.67.22.67-1.41,3-1.26,3.68.05C29.84,23,30.49,22.88,30.37,22.48ZM76,74.76a3.35,3.35,0,0,0-5.44.9c-.15.38.47.58.64.2a2.67,2.67,0,0,1,4.2-.61C75.71,75.6,76.29,75.13,76,74.76ZM52.65,52.85a.44.44,0,0,0-.13-.6,1.69,1.69,0,0,0-1.86-.19.4.4,0,0,0,.35.71.9.9,0,0,1,.58-.06,2.29,2.29,0,0,1-3.1-.11A.3.3,0,0,0,48,53,2.89,2.89,0,0,0,52.65,52.85Zm-25.59-28c.3-.31,0-.91-.46-.67A2.41,2.41,0,0,1,23.1,23c-.12-.37-.68-.15-.64.19C22.7,25.07,25.6,26.28,27.06,24.82ZM49.39,50c.15-.89-.9-1.6-1.7-1.78a2.27,2.27,0,0,0-2.39.72c-.21.27.23.65.47.4a1.66,1.66,0,0,1,1.72-.36c.67.2.86.62,1.18,1.15A.39.39,0,0,0,49.39,50Zm23,28c.19-.29-.23-.7-.51-.43a2.46,2.46,0,0,1-3.75-.15c-.15-.22-.55,0-.41.26C68.59,79.2,71.3,79.58,72.37,78Z" transform="translate(-5.19 -9.38)" style="fill:#ffde17"/><path d="M35.25,16a.47.47,0,0,1,.79.51c-.9,1.68-3.69,1.6-4.86.29-.21-.25.16-.54.4-.33A2.52,2.52,0,0,0,35.25,16Z" transform="translate(-5.19 -9.38)" style="fill:#442a18"/><path d="M33.52,23c.21-.42.94-.35.88.17a3,3,0,0,1-2.62,2.26.34.34,0,1,1-.13-.66A2.74,2.74,0,0,0,33.52,23Z" transform="translate(-5.19 -9.38)" style="fill:#442a18"/><path d="M46.79,41.64a2.86,2.86,0,0,1,3.88.72c.21.39-.38.73-.68.41a2.18,2.18,0,0,0-2.82-.58C46.83,42.39,46.46,41.85,46.79,41.64Z" transform="translate(-5.19 -9.38)" style="fill:#442a18"/><path d="M25.32,22.42c.73-2.1,4.4-2.07,5.05.06.12.4-.53.56-.7.21-.68-1.31-3-1.46-3.68-.05C25.8,23,25.18,22.84,25.32,22.42Z" transform="translate(-5.19 -9.38)" style="fill:#442a18"/><path d="M70.53,75.66a3.35,3.35,0,0,1,5.44-.9c.32.37-.26.84-.6.49a2.67,2.67,0,0,0-4.2.61C71,76.24,70.38,76,70.53,75.66Z" transform="translate(-5.19 -9.38)" style="fill:#442a18"/><path d="M52.52,52.25a.44.44,0,0,1,.13.6A2.89,2.89,0,0,1,48,53a.3.3,0,0,1,.47-.38,2.29,2.29,0,0,0,3.1.11.9.9,0,0,0-.58.06.4.4,0,0,1-.35-.71A1.69,1.69,0,0,1,52.52,52.25Z" transform="translate(-5.19 -9.38)" style="fill:#442a18"/><path d="M26.6,24.15c.46-.24.76.36.46.67-1.46,1.46-4.36.25-4.6-1.63,0-.34.52-.56.64-.19A2.41,2.41,0,0,0,26.6,24.15Z" transform="translate(-5.19 -9.38)" style="fill:#442a18"/><path d="M47.69,48.17c.8.18,1.85.89,1.7,1.78a.39.39,0,0,1-.72.13c-.32-.53-.51-.95-1.18-1.15a1.66,1.66,0,0,0-1.72.36c-.24.25-.68-.13-.47-.4A2.27,2.27,0,0,1,47.69,48.17Z" transform="translate(-5.19 -9.38)" style="fill:#442a18"/><path d="M71.86,77.56c.28-.27.7.14.51.43-1.07,1.59-3.78,1.21-4.67-.32-.14-.24.26-.48.41-.26A2.46,2.46,0,0,0,71.86,77.56Z" transform="translate(-5.19 -9.38)" style="fill:#442a18"/><path d="M6.15,56.42c2.53-6.13,9.19-9.82,16-9.17,7.46.72,13.61,5.49,20.13,8.54a40.57,40.57,0,0,0,26.79,2.54c4.34-1.07,8-3.29,12.15-4.81,2.77-1,6-1.55,8.78-.39,5.39,2.23,6.2,9.55,5.27,14.37-3,15.67-21.79,17-35.4,16.89A109.58,109.58,0,0,1,13.26,73.94a.56.56,0,0,1-.56,0c-.48-.29-.93-.61-1.38-.94s-.82-.4-1.21-.62a.36.36,0,0,1-.17-.54C5.76,67.85,3.9,61.83,6.15,56.42ZM27.21,50c-6.76-2.4-14.25-1.26-18.37,4.8s-1.93,13.81,4,17.77A122.11,122.11,0,0,0,58.78,83c13.27.24,33-.64,35.23-16.58.46-3.23.09-7.15-2-9.86-2.76-3.66-7.45-3-11.26-1.36C75,57.63,69.91,60.11,63.5,60.77a42.1,42.1,0,0,1-19-2.37C38.47,56.12,33.28,52.2,27.21,50Z" transform="translate(-5.19 -9.38)" style="fill:#442a18"/><path d="M8.84,54.83C13,48.77,20.45,47.63,27.21,50c6.07,2.17,11.26,6.09,17.3,8.37a42.1,42.1,0,0,0,19,2.37c6.41-.66,11.51-3.14,17.29-5.57,3.81-1.59,8.5-2.3,11.26,1.36,2,2.71,2.42,6.63,2,9.86C91.75,82.36,72.05,83.24,58.78,83A122.11,122.11,0,0,1,12.87,72.6C6.91,68.64,4.77,60.82,8.84,54.83Zm8.3-.71a.48.48,0,0,0-.93.21,2.24,2.24,0,0,1-.3,1.83,2.42,2.42,0,0,1-1.8,1.06.25.25,0,1,0,0,.5C15.89,57.79,17.84,55.89,17.14,54.12Zm4,5.62c-.36-.39-.91.08-.73.51a2.51,2.51,0,0,1,.12,2.5.35.35,0,0,0,.59.36A2.73,2.73,0,0,0,21.18,59.74Zm25.91,1.58a2.74,2.74,0,0,0-3.17,2.24c-.06.36.61.48.68.1A2.11,2.11,0,0,1,47,62.08.39.39,0,0,0,47.09,61.32ZM18,62.14c-2.09-1-4.59,1.57-3.45,3.5a.35.35,0,0,0,.62-.32c-.63-1.42,1-2.95,2.52-2.54C18,62.89,18.35,62.33,18,62.14Zm71.37,3.3a3.14,3.14,0,0,0-3,4.43.33.33,0,0,0,.59-.31,2.5,2.5,0,0,1,2.37-3.37A.38.38,0,1,0,89.33,65.44ZM56.58,67A.48.48,0,0,0,56,66.7a1.6,1.6,0,0,0-1.41,1.18.41.41,0,0,0,.79.23.74.74,0,0,1,.35-.44,2.15,2.15,0,0,1-2.18,2.09.3.3,0,1,0,0,.59A2.72,2.72,0,0,0,56.58,67Zm-39-1c0-.42-.71-.61-.84-.13a2.37,2.37,0,0,1-3.25,1.68c-.37-.16-.58.38-.28.58C14.8,69.27,17.69,68.05,17.55,66Zm34.58,1.3c-.59-.7-1.85-.45-2.53,0a2,2,0,0,0-1.05,2.16c.07.34.65.29.63-.06A1.49,1.49,0,0,1,50.05,68a2.14,2.14,0,0,1,1.7,0A.37.37,0,0,0,52.13,67.34Zm37.28,2.81c-.1-.33-.7-.3-.67.07a2.33,2.33,0,0,1-2.66,2.53c-.27,0-.35.4-.08.47C87.79,73.62,89.92,72,89.41,70.15Z" transform="translate(-5.19 -9.38)" style="fill:#ffde17"/><path d="M16.21,54.33a.48.48,0,0,1,.93-.21c.7,1.77-1.25,3.67-3.05,3.6a.25.25,0,1,1,0-.5,2.42,2.42,0,0,0,1.8-1.06A2.24,2.24,0,0,0,16.21,54.33Z" transform="translate(-5.19 -9.38)" style="fill:#442a18"/><path d="M20.45,60.25c-.18-.43.37-.9.73-.51a2.73,2.73,0,0,1,0,3.37.35.35,0,0,1-.59-.36A2.51,2.51,0,0,0,20.45,60.25Z" transform="translate(-5.19 -9.38)" style="fill:#442a18"/><path d="M43.92,63.56a2.74,2.74,0,0,1,3.17-2.24.39.39,0,0,1-.13.76,2.11,2.11,0,0,0-2.36,1.58C44.53,64,43.86,63.92,43.92,63.56Z" transform="translate(-5.19 -9.38)" style="fill:#442a18"/><path d="M14.51,65.64c-1.14-1.93,1.36-4.48,3.45-3.5.39.19.08.75-.31.64-1.47-.41-3.15,1.12-2.52,2.54A.35.35,0,0,1,14.51,65.64Z" transform="translate(-5.19 -9.38)" style="fill:#442a18"/><path d="M86.35,69.87a3.14,3.14,0,0,1,3-4.43.38.38,0,1,1,0,.75,2.5,2.5,0,0,0-2.37,3.37A.33.33,0,0,1,86.35,69.87Z" transform="translate(-5.19 -9.38)" style="fill:#442a18"/><path d="M56,66.7a.48.48,0,0,1,.55.32,2.72,2.72,0,0,1-3,3.33.3.3,0,1,1,0-.59,2.15,2.15,0,0,0,2.18-2.09.74.74,0,0,0-.35.44.41.41,0,0,1-.79-.23A1.6,1.6,0,0,1,56,66.7Z" transform="translate(-5.19 -9.38)" style="fill:#442a18"/><path d="M16.71,65.91c.13-.48.81-.29.84.13.14,2-2.75,3.23-4.37,2.13-.3-.2-.09-.74.28-.58A2.37,2.37,0,0,0,16.71,65.91Z" transform="translate(-5.19 -9.38)" style="fill:#442a18"/><path d="M49.6,67.33c.68-.44,1.94-.69,2.53,0a.37.37,0,0,1-.38.6,2.14,2.14,0,0,0-1.7,0,1.49,1.49,0,0,0-.87,1.44c0,.35-.56.4-.63.06A2,2,0,0,1,49.6,67.33Z" transform="translate(-5.19 -9.38)" style="fill:#442a18"/><path d="M88.74,70.22c0-.37.57-.4.67-.07.51,1.83-1.62,3.47-3.41,3.07-.27-.07-.19-.51.08-.47A2.33,2.33,0,0,0,88.74,70.22Z" transform="translate(-5.19 -9.38)" style="fill:#442a18"/><path d="M67.53,55.56a62,62,0,0,1-26.34-3.13,40.83,40.83,0,0,1-8.78-5.85c-8.46-7.4-18.74-25.29-6-33.48a.88.88,0,0,0-.92-1.49c-14.19,7.39-5.36,26.7,2.91,35,.18.19.37.37.56.55a1,1,0,0,0-.93,1.75,49,49,0,0,0,13.87,6.84,41.55,41.55,0,0,0,26,2.46C69.43,57.87,69.17,55.4,67.53,55.56Z" transform="translate(-5.19 -9.38)" style="fill:#fbd888;opacity:0.55;mix-blend-mode:multiply"/><path d="M92.08,67.32C89.65,75.16,81.55,78.23,73.66,79a129.17,129.17,0,0,1-24.16-.43,162.57,162.57,0,0,1-24.23-4.28c-7.5-1.92-18.88-4.93-17.38-14.46a.54.54,0,0,0-1-.27c-3,7.16,4.6,12.61,10.7,14.86A129.66,129.66,0,0,0,47.07,81c9.89,1.15,20.56,1.83,30.43.2C85,80,93.08,75.72,94.36,67.91A1.18,1.18,0,0,0,92.08,67.32Z" transform="translate(-5.19 -9.38)" style="fill:#fbd888;opacity:0.55;mix-blend-mode:multiply"/></g></g></svg>