<svg xmlns="http://www.w3.org/2000/svg" viewBox="0 0 91.18 74.25"><title>ico-snacky</title><g style="isolation:isolate"><g id="Layer_3" data-name="Layer 3"><path d="M54,24.74A29.92,29.92,0,0,1,71.87,56.16C70.07,70.33,58.53,80.45,46,80a.52.52,0,0,1-.44.22H42.12a.49.49,0,0,0,0,.17.28.28,0,0,0-.2.4c-12.07.47-29.71-.92-33.73-16a49.47,49.47,0,0,1-1.34-9.87C6.63,51,6.34,47,7,43.23,8.19,37,12.25,32.13,17,28.85,27.57,21.69,42.43,19.8,54,24.74ZM66.06,37.67a.32.32,0,1,0,.63,0,2.16,2.16,0,0,0-2.7-2.1c-.3.11-.18.63.14.54A1.62,1.62,0,0,1,66.06,37.67Zm-.13,6a.44.44,0,0,0,.16-.7c-.26-.25-.51-.49-.78-.73s-.85.21-.5.56L65,43a1.37,1.37,0,0,1-1-.24.84.84,0,0,1-.14-1.2c.23-.21-.07-.64-.32-.45a1.49,1.49,0,0,0-.19,2C63.93,43.94,65.07,43.83,65.93,43.68ZM62.6,38.51c.62-.18,1.07-1.42.23-1.62-.38-.1-.55.53-.18.65a.35.35,0,0,1-.06.14c-.05.1-.12.17-.23.15-.4-.09-.46-.9-.49-1.24a.23.23,0,1,0-.46,0A3,3,0,0,0,61.65,38,.89.89,0,0,0,62.6,38.51Zm-1.74,31.8c.1.53.8.3.72-.22-.26-1.66-2-3.67-3.69-3.14a.34.34,0,0,0,0,.63,4.2,4.2,0,0,1,1.89.76A3.46,3.46,0,0,1,60.86,70.31Zm-.09-13.06a.45.45,0,0,0-.38-.55.31.31,0,0,0,.23-.26,7,7,0,0,0-2.91-6.93c-2.49-2-1.5-6.14-4.59-7.82-1.41-.77-2.86-.41-4.36-.41-2.32,0-3.87-1.21-5.82-2.44-2.71-1.71-5.14-1.44-7.77-.17a.35.35,0,0,0-.52-.17,8.29,8.29,0,0,1-5.12,1.73,8.71,8.71,0,0,0-3.63.18,8.19,8.19,0,0,0-3.63,3.89,76.4,76.4,0,0,0-4.8,9.78c-.51,1.38-.43,2.05.58,3a9.48,9.48,0,0,1,2.66,4.29A17.19,17.19,0,0,0,22,64.71a8,8,0,0,0,4.3,3.43c5.49,2,11.28-.77,16.77,1.42a.26.26,0,0,0,.31-.09c3.48.67,7.09-2.62,10.37-3.49C57.6,65,59.9,61.42,60.77,57.25Zm-4.56,12.9c.36.12.58-.46.26-.66a5.6,5.6,0,0,0-.81-.41c0-.51,0-1,0-1.52a.32.32,0,1,0-.64,0c0,.59,0,1.19,0,1.78a.39.39,0,0,0,.18.34A8.47,8.47,0,0,0,56.21,70.15Zm-31.8-39.7c.26-.17.1-.62-.2-.53a5.82,5.82,0,0,0-1.06.45.33.33,0,0,0-.15.29c0,.72,0,1.44,0,2.16a.24.24,0,1,0,.47,0c0-.65.07-1.29.09-1.94A4.27,4.27,0,0,0,24.41,30.45ZM21.35,74.73c.21,0,.35-.29.24-.47a2,2,0,0,0-2.4-.89c-.25.1-.15.53.11.45a1.47,1.47,0,0,1,1.29.21h0c-.35,0-.34.56,0,.6ZM20.8,35.31a2.35,2.35,0,0,0,0-3.05,1.83,1.83,0,0,0-2.72.05c-.25.28.12.67.38.42a1.33,1.33,0,0,1,1.9,0,1.7,1.7,0,0,1,0,2.08C20.1,35.16,20.49,35.62,20.8,35.31ZM19.25,38.9c.32,0,.4-.58.07-.64a1.35,1.35,0,0,1-1-1.68.23.23,0,1,0-.44-.13A1.84,1.84,0,0,0,19.25,38.9Zm.05,36.83c.34-.07.27-.7-.08-.66a3.54,3.54,0,0,1-3.48-1.68c-.15-.23-.48,0-.35.23A3.67,3.67,0,0,0,19.3,75.73Z" transform="translate(-5.22 -12.25)" style="fill:#ef9c28"/><path d="M60.34,26.8a31.76,31.76,0,0,1,11,36.68A26.32,26.32,0,0,1,46.13,81.12a.33.33,0,0,1-.14.15,6.8,6.8,0,0,1-3.93.66,45.1,45.1,0,0,1-24.71-3.84C10.27,74.67,6.94,68.09,6,59.83c-.84-7.09-1.58-15.42,1.46-22,2.66-5.76,7.67-9.82,12.87-12.44C32.63,19.17,48.64,18.54,60.34,26.8ZM71.87,56.16A29.92,29.92,0,0,0,54,24.74c-11.55-4.94-26.41-3-36.94,4.11C12.25,32.13,8.19,37,7,43.23,6.34,47,6.63,51,6.85,54.85a49.47,49.47,0,0,0,1.34,9.87c4,15.12,21.66,16.51,33.73,16a.28.28,0,0,1,.2-.4.49.49,0,0,1,0-.17h3.39A.52.52,0,0,0,46,80C58.53,80.45,70.07,70.33,71.87,56.16Z" transform="translate(-5.22 -12.25)" style="fill:#442a18"/><path d="M66.69,37.67a.32.32,0,1,1-.63,0,1.62,1.62,0,0,0-1.93-1.56c-.32.09-.44-.43-.14-.54A2.16,2.16,0,0,1,66.69,37.67Z" transform="translate(-5.22 -12.25)" style="fill:#442a18"/><path d="M66.09,43a.44.44,0,0,1-.16.7c-.86.15-2,.26-2.58-.62a1.49,1.49,0,0,1,.19-2c.25-.19.55.24.32.45a.84.84,0,0,0,.14,1.2A1.37,1.37,0,0,0,65,43l-.16-.16c-.35-.35.16-.89.5-.56S65.83,42.73,66.09,43Z" transform="translate(-5.22 -12.25)" style="fill:#442a18"/><path d="M62.83,36.89c.84.2.39,1.44-.23,1.62a.89.89,0,0,1-1-.56,3,3,0,0,1-.24-1.36.23.23,0,1,1,.46,0c0,.34.09,1.15.49,1.24.11,0,.18,0,.23-.15a.35.35,0,0,0,.06-.14C62.28,37.42,62.45,36.79,62.83,36.89Z" transform="translate(-5.22 -12.25)" style="fill:#442a18"/><path d="M61.58,70.09c.08.52-.62.75-.72.22a3.46,3.46,0,0,0-1.08-2,4.2,4.2,0,0,0-1.89-.76.34.34,0,0,1,0-.63C59.56,66.42,61.32,68.43,61.58,70.09Z" transform="translate(-5.22 -12.25)" style="fill:#442a18"/><path d="M60.39,56.7a.45.45,0,0,1,.38.55c-.87,4.17-3.17,7.72-7,8.73-3.28.87-6.89,4.16-10.37,3.49a.26.26,0,0,1-.31.09c-5.49-2.19-11.28.57-16.77-1.42A8,8,0,0,1,22,64.71a17.19,17.19,0,0,1-1.31-3.3,9.48,9.48,0,0,0-2.66-4.29c-1-1-1.09-1.66-.58-3a76.4,76.4,0,0,1,4.8-9.78,8.19,8.19,0,0,1,3.63-3.89,8.71,8.71,0,0,1,3.63-.18,8.29,8.29,0,0,0,5.12-1.73.35.35,0,0,1,.52.17c2.63-1.27,5.06-1.54,7.77.17,2,1.23,3.5,2.43,5.82,2.44,1.5,0,3-.36,4.36.41,3.09,1.68,2.1,5.85,4.59,7.82a7,7,0,0,1,2.91,6.93A.31.31,0,0,1,60.39,56.7Zm-.34.21a.42.42,0,0,1,.22-.2.36.36,0,0,1-.35-.38,6.41,6.41,0,0,0-2.18-5.49c-.77-.67-1.76-1.09-2.27-2.09a13.49,13.49,0,0,1-.63-2.83,4.27,4.27,0,0,0-4.52-3.64c-2.52,0-4.12.06-6.32-1.43-1.51-1-3-2.28-4.81-2.38s-3.43.78-5,1.46a7.39,7.39,0,0,1-3.86,1.34c-1.3.07-2.46-.22-3.74.18-1.68.53-2.57,1.82-3.46,3.4-1.43,2.53-2.6,5.28-3.88,7.91-.79,1.62-1.17,2.45,0,4a13.91,13.91,0,0,1,1.24,1.5c1.19,2,1.36,4.58,2.78,6.43,1.8,2.36,4.67,3,7.33,3.06,3.77.11,7.66-.92,11.25.47a.35.35,0,0,1,.2,0c3.73,1.9,7.47-2.27,11-3.18C57.47,63.91,58.18,60.83,60.05,56.91Z" transform="translate(-5.22 -12.25)" style="fill:#442a18"/><path d="M56.47,69.49c.32.2.1.78-.26.66a8.47,8.47,0,0,1-1.07-.47.39.39,0,0,1-.18-.34c0-.59,0-1.19,0-1.78a.32.32,0,1,1,.64,0c0,.5,0,1,0,1.52A5.6,5.6,0,0,1,56.47,69.49Z" transform="translate(-5.22 -12.25)" style="fill:#442a18"/><path d="M24.21,29.92c.3-.09.46.36.2.53a4.27,4.27,0,0,1-.82.43c0,.65-.05,1.29-.09,1.94a.24.24,0,1,1-.47,0c0-.72,0-1.44,0-2.16a.33.33,0,0,1,.15-.29A5.82,5.82,0,0,1,24.21,29.92Z" transform="translate(-5.22 -12.25)" style="fill:#442a18"/><path d="M21.59,74.26c.11.18,0,.5-.24.47l-.78-.1c-.34,0-.35-.63,0-.6h0a1.47,1.47,0,0,0-1.29-.21c-.26.08-.36-.35-.11-.45A2,2,0,0,1,21.59,74.26Z" transform="translate(-5.22 -12.25)" style="fill:#442a18"/><path d="M20.82,32.26a2.35,2.35,0,0,1,0,3.05c-.31.31-.7-.15-.45-.49a1.7,1.7,0,0,0,0-2.08,1.33,1.33,0,0,0-1.9,0c-.26.25-.63-.14-.38-.42A1.83,1.83,0,0,1,20.82,32.26Z" transform="translate(-5.22 -12.25)" style="fill:#442a18"/><path d="M19.32,38.26c.33.06.25.67-.07.64a1.84,1.84,0,0,1-1.34-2.45.23.23,0,1,1,.44.13A1.35,1.35,0,0,0,19.32,38.26Z" transform="translate(-5.22 -12.25)" style="fill:#442a18"/><path d="M19.22,75.07c.35,0,.42.59.08.66a3.67,3.67,0,0,1-3.91-2.11c-.13-.27.2-.46.35-.23A3.54,3.54,0,0,0,19.22,75.07Z" transform="translate(-5.22 -12.25)" style="fill:#442a18"/><path d="M78.33,78.73c-10.08,8.18-23.76,9-33.51-.27s-11.25-25.56-4.09-37a.64.64,0,0,1,.06-.53l1.83-3.16a.38.38,0,0,0-.13-.09.28.28,0,0,0-.19-.41C48.46,25.72,59,10,72.68,14.42a38,38,0,0,1,8.23,4.08c3,1.86,6.22,3.74,8.72,6.44C93.77,29.4,95.25,35.8,95.15,42,94.91,55.73,88.32,70.62,78.33,78.73ZM62,83c-.35-.21-.69.35-.34.58a2.06,2.06,0,0,0,3.05-1.38.25.25,0,1,0-.48-.16A1.55,1.55,0,0,1,62,83ZM57.5,79.65c-.11.29.19.62.44.53l1-.33c.43-.14.3-.91-.15-.77l-.21.06a1.56,1.56,0,0,1,.7-.77.69.69,0,0,1,1,.52c0,.32.52.27.52-.06a1.3,1.3,0,0,0-1.41-1.25C58.38,77.65,57.85,78.77,57.5,79.65Zm5.72-.31c-.19.67.51,1.76,1.11,1.08.28-.3-.1-.79-.4-.51a.42.42,0,0,1-.07-.13.25.25,0,0,1,0-.3c.29-.33.93,0,1.21.21s.5-.25.25-.43a2.37,2.37,0,0,0-1.17-.51A.9.9,0,0,0,63.22,79.34ZM40,60.54c-.45-.19-.66.59-.22.8,1.4.65,3.88.09,4.37-1.75.09-.3-.26-.56-.47-.34a4.5,4.5,0,0,1-1.6,1.35A2.68,2.68,0,0,1,40,60.54Zm10,7a.4.4,0,0,0,.63-.06.36.36,0,0,0,.08.35c2,2.08,4.4,2.09,6.83,1,2.84-1.26,5.47,1.93,8.42,0,1.34-.9,1.85-2.45,2.66-3.85,1.26-2.17,3-3,5-4.11,2.76-1.61,3.88-4,4.33-7.17a.38.38,0,0,0,.41-.39,10.64,10.64,0,0,1,1.45-5.71,10.67,10.67,0,0,0,1.82-3.49,9.44,9.44,0,0,0-1-5.48,77.05,77.05,0,0,0-4.84-9.76c-.77-1.22-1.32-1.51-2.63-1.1a7.67,7.67,0,0,1-4.69.17,13,13,0,0,0-3.21-.56,7.53,7.53,0,0,0-4.93,2.16c-4.47,4.05-5.5,10.94-10.13,14.89a.3.3,0,0,0-.09.33c-2.39,2.88-1.84,8-3,11.56C45.82,60.39,47.28,64.45,50,67.52ZM42.64,56.3c-.28.27,0,.79.37.59a7.32,7.32,0,0,0,.75-.53l1.18.77c.35.22.68-.34.34-.59l-1.35-1a.3.3,0,0,0-.35,0A8.35,8.35,0,0,0,42.64,56.3ZM90,48.06a.26.26,0,0,0,.51.09,8.24,8.24,0,0,0,.23-1.24.33.33,0,0,0-.14-.29c-.55-.38-1.09-.77-1.66-1.13-.26-.17-.49.24-.25.44.47.39.95.75,1.43,1.12A5.69,5.69,0,0,0,90,48.06ZM58,21.29a.32.32,0,0,0,.23.49,2.13,2.13,0,0,0,2-1.76c.06-.29-.32-.44-.4-.14A1.74,1.74,0,0,1,58.92,21v0a.28.28,0,1,0-.45-.32ZM88.21,42.06a2,2,0,0,0,2.31,1.66A2.18,2.18,0,0,0,92,41.16c-.07-.38-.58-.25-.52.13a1.58,1.58,0,0,1-1,1.76,1.42,1.42,0,0,1-1.56-1.14A.32.32,0,1,0,88.21,42.06Zm-1.88-3.38c-.2.28.22.68.45.41a1.12,1.12,0,0,1,1.79,0c.2.25.51-.08.34-.34A1.55,1.55,0,0,0,86.33,38.68Zm-28-19.83c-.13.35.39.62.54.28A3.71,3.71,0,0,1,62,16.79c.26,0,.29-.44,0-.46A3.76,3.76,0,0,0,58.33,18.85Z" transform="translate(-5.22 -12.25)" style="fill:#ef9c28"/><path d="M73.34,83.55c-11.93,6.11-26.13,2.62-33.82-9.49-6.32-9.93-5.79-23.31.23-33.09a.3.3,0,0,1,0-.21,8.69,8.69,0,0,1,1.62-4c3.64-8.16,9.41-15.93,16.25-21C64,11,70.8,11.43,77.6,15c5.85,3,12.57,6.85,15.92,13.24,2.94,5.59,3.32,12.45,2.5,18.72C94.09,61.82,85.93,77.09,73.34,83.55ZM44.82,78.46c9.75,9.28,23.43,8.45,33.51.27S94.91,55.73,95.15,42c.1-6.24-1.38-12.64-5.52-17.1-2.5-2.7-5.7-4.58-8.72-6.44a38,38,0,0,0-8.23-4.08C59,10,48.46,25.72,42.3,37.23a.28.28,0,0,1,.19.41.38.38,0,0,1,.13.09l-1.83,3.16a.64.64,0,0,0-.06.53C33.57,52.9,35,69.13,44.82,78.46Z" transform="translate(-5.22 -12.25)" style="fill:#442a18"/><path d="M61.65,83.6c-.35-.23,0-.79.34-.58a1.55,1.55,0,0,0,2.23-1,.25.25,0,1,1,.48.16A2.06,2.06,0,0,1,61.65,83.6Z" transform="translate(-5.22 -12.25)" style="fill:#442a18"/><path d="M57.94,80.18c-.25.09-.55-.24-.44-.53.35-.88.88-2,1.86-2.07a1.3,1.3,0,0,1,1.41,1.25c0,.33-.49.38-.52.06a.69.69,0,0,0-1-.52,1.56,1.56,0,0,0-.7.77l.21-.06c.45-.14.58.63.15.77Z" transform="translate(-5.22 -12.25)" style="fill:#442a18"/><path d="M64.33,80.42c-.6.68-1.3-.41-1.11-1.08a.9.9,0,0,1,.94-.59,2.37,2.37,0,0,1,1.17.51c.25.18,0,.58-.25.43s-.92-.54-1.21-.21a.25.25,0,0,0,0,.3.42.42,0,0,0,.07.13C64.23,79.63,64.61,80.12,64.33,80.42Z" transform="translate(-5.22 -12.25)" style="fill:#442a18"/><path d="M39.79,61.34c-.44-.21-.23-1,.22-.8a2.68,2.68,0,0,0,2.08.06,4.5,4.5,0,0,0,1.6-1.35c.21-.22.56,0,.47.34C43.67,61.43,41.19,62,39.79,61.34Z" transform="translate(-5.22 -12.25)" style="fill:#442a18"/><path d="M50.6,67.46a.4.4,0,0,1-.63.06c-2.69-3.07-4.15-7.13-2.85-11.25,1.12-3.53.57-8.68,3-11.56a.3.3,0,0,1,.09-.33c4.63-4,5.66-10.84,10.13-14.89a7.53,7.53,0,0,1,4.93-2.16,13,13,0,0,1,3.21.56,7.67,7.67,0,0,0,4.69-.17c1.31-.41,1.86-.12,2.63,1.1a77.05,77.05,0,0,1,4.84,9.76,9.44,9.44,0,0,1,1,5.48,10.67,10.67,0,0,1-1.82,3.49,10.64,10.64,0,0,0-1.45,5.71.38.38,0,0,1-.41.39c-.45,3.14-1.57,5.56-4.33,7.17-2,1.15-3.73,1.94-5,4.11-.81,1.4-1.32,2.95-2.66,3.85-3,2-5.58-1.21-8.42,0-2.43,1.07-4.8,1.06-6.83-1A.36.36,0,0,1,50.6,67.46Zm0-.43a.44.44,0,0,1,0,.31.33.33,0,0,1,.48-.12,5.1,5.1,0,0,0,5.34.93c.93-.36,1.78-1.06,2.81-1a9.89,9.89,0,0,1,2.49.94c2.26.77,4-.07,5.21-2.26,1.36-2.34,2.18-3.87,4.49-5.12,1.59-.86,3.34-1.54,4.41-3.21s1.26-3.62,1.59-5.46a9.62,9.62,0,0,1,1.07-4.33,17.45,17.45,0,0,0,1.88-3.58,7.3,7.3,0,0,0-.71-5.06c-1.15-2.71-2.61-5.28-3.92-7.89-.8-1.62-1.23-2.42-3-2.12a12.29,12.29,0,0,1-1.81.34c-2.17,0-4.21-1.2-6.38-.88-2.76.41-4.79,2.75-6.28,5.19-2.12,3.46-3.44,7.65-6.43,10.24a.27.27,0,0,1-.13.17c-3.45,2.46-2.3,8.2-3.53,12C46.7,60.84,48.66,63.16,50.62,67Z" transform="translate(-5.22 -12.25)" style="fill:#442a18"/><path d="M43,56.89c-.33.2-.65-.32-.37-.59a8.35,8.35,0,0,1,.94-.75.3.3,0,0,1,.35,0l1.35,1c.34.25,0,.81-.34.59l-1.18-.77A7.32,7.32,0,0,1,43,56.89Z" transform="translate(-5.22 -12.25)" style="fill:#442a18"/><path d="M90.47,48.15a.26.26,0,0,1-.51-.09,5.69,5.69,0,0,1,.12-1c-.48-.37-1-.73-1.43-1.12-.24-.2,0-.61.25-.44.57.36,1.11.75,1.66,1.13a.33.33,0,0,1,.14.29A8.24,8.24,0,0,1,90.47,48.15Z" transform="translate(-5.22 -12.25)" style="fill:#442a18"/><path d="M58.21,21.78a.32.32,0,0,1-.23-.49l.5-.66a.28.28,0,1,1,.45.32v0a1.74,1.74,0,0,0,.86-1.09c.08-.3.46-.15.4.14A2.13,2.13,0,0,1,58.21,21.78Z" transform="translate(-5.22 -12.25)" style="fill:#442a18"/><path d="M90.52,43.72a2,2,0,0,1-2.31-1.66.32.32,0,1,1,.62-.15,1.42,1.42,0,0,0,1.56,1.14,1.58,1.58,0,0,0,1-1.76c-.06-.38.45-.51.52-.13A2.18,2.18,0,0,1,90.52,43.72Z" transform="translate(-5.22 -12.25)" style="fill:#442a18"/><path d="M86.78,39.09c-.23.27-.65-.13-.45-.41a1.55,1.55,0,0,1,2.58.07c.17.26-.14.59-.34.34A1.12,1.12,0,0,0,86.78,39.09Z" transform="translate(-5.22 -12.25)" style="fill:#442a18"/><path d="M58.87,19.13c-.15.34-.67.07-.54-.28A3.76,3.76,0,0,1,62,16.33c.28,0,.25.44,0,.46A3.71,3.71,0,0,0,58.87,19.13Z" transform="translate(-5.22 -12.25)" style="fill:#442a18"/><path d="M71.16,60.51a7.5,7.5,0,0,0-3.6,2.3c-.59.65-.91,1.61-1.48,2.23-1.19,1.31-2,.78-3.39.59A16.82,16.82,0,0,0,60,65.49c3.12-4.08,3.85-10.34,2.1-15.25-1.21-3.37-3.51-6-3.43-9.83a11.65,11.65,0,0,1,.81-4c1.3-1.65,2.59-3.32,3.92-4.94.82-1-.24-2.73-1.36-1.95a13.07,13.07,0,0,0-4.47,5.6,64.11,64.11,0,0,0-4,6,.85.85,0,0,0,.13,1,1.41,1.41,0,0,0,.47,2.15c1.6.63,1.25,4.36,2.14,5.85,1.17,2,2.68,3.19,3.2,5.64a9.1,9.1,0,0,1-6.85,10.92,2.35,2.35,0,0,1-1.18-.54c-.64-.54-1.6.53-1.12,1.23a3.34,3.34,0,0,0,3.34,1.52c2.53-.16,4.87-1.13,7.46-.94,1.73.13,3.89,1,5.5-.09a7.76,7.76,0,0,0,1.68-2.29A8,8,0,0,1,72,62.68C73.13,62.14,72.3,60.2,71.16,60.51ZM56.48,40.2c0,.29,0,.58,0,.87l-.09.14c-.21.38-.41.77-.61,1.16a3.81,3.81,0,0,0-.74-.44C55.52,41.36,56,40.78,56.48,40.2Zm2.15,9a9.9,9.9,0,0,1-1.17-3.51c.81,2,2,3.8,2.69,5.84C59.68,50.82,59.16,50.07,58.63,49.24Z" transform="translate(-5.22 -12.25)" style="fill:#fbd888;opacity:0.55;mix-blend-mode:multiply"/><path d="M43.27,78c-2.68-1.65-3.8-4.78-4.8-7.82a1,1,0,0,0-.73-1.29,7.48,7.48,0,0,0-1.54-.2.87.87,0,0,0-.94-.35,21.84,21.84,0,0,1-9.38.31A7.52,7.52,0,0,1,24,65.52c-1.3-3.81-2.21-8.62-6.51-9.23-.54-.08-.59.83-.12,1,4.85,1.81,3.62,9.9,7.14,13.36,3.17,3.13,6.86.71,10.45.38a15.58,15.58,0,0,0,4,6.56,18.67,18.67,0,0,0,2,2.74,1,1,0,0,0,1.63-.23A1.15,1.15,0,0,0,43.27,78Z" transform="translate(-5.22 -12.25)" style="fill:#fbd888;opacity:0.55;mix-blend-mode:multiply"/><path d="M95,41.84c0-1.31,0-2.62-.1-3.94a1.37,1.37,0,0,0-.23-.65,24,24,0,0,0-7.06-14.46,1.06,1.06,0,0,0-1.33-.14c-4.25-5.32-10.08-8.76-16.58-9-.84,0-1.07,1.54-.2,1.68,14.32,2.29,23.82,17.65,19.75,33.17-2.18,8.33-7,15.6-11.93,22.23C73.45,76,68.64,81.28,62.7,83.11a26.74,26.74,0,0,1-5.66.61c-1.31,0-1.26,2.08,0,2.21a16.46,16.46,0,0,0,8.46-1.34l.08,0a1.2,1.2,0,0,0,.69.09c9.77-1.72,17.69-9,22.88-18.1A1,1,0,0,0,89.8,66a70.61,70.61,0,0,0,6-22.94A1.14,1.14,0,0,0,95,41.84ZM92.52,39.3a31.2,31.2,0,0,0-.37-3.5,22.88,22.88,0,0,1,.42,3.1ZM91.25,49.9c-.34,1.26-.65,2.54-.93,3.83a.78.78,0,0,0-.34,0C90.46,52.47,90.89,51.2,91.25,49.9Z" transform="translate(-5.22 -12.25)" style="fill:#fbd888;opacity:0.55;mix-blend-mode:multiply"/></g></g></svg>